<?xml version="1.0" encoding="UTF-8" standalone="no"?>
<svg
   xmlns:dc="http://purl.org/dc/elements/1.1/"
   xmlns:cc="http://creativecommons.org/ns#"
   xmlns:rdf="http://www.w3.org/1999/02/22-rdf-syntax-ns#"
   xmlns:svg="http://www.w3.org/2000/svg"
   xmlns="http://www.w3.org/2000/svg"
   xmlns:xlink="http://www.w3.org/1999/xlink"
   xmlns:sodipodi="http://sodipodi.sourceforge.net/DTD/sodipodi-0.dtd"
   xmlns:inkscape="http://www.inkscape.org/namespaces/inkscape"
   id="Ebene_1"
   data-name="Ebene 1"
   viewBox="0 0 419.96 312.32"
   version="1.1"
   sodipodi:docname="IPv4_Flag.svg"
   inkscape:version="0.92.3 (2405546, 2018-03-11)">
  <metadata
     id="metadata4003">
    <rdf:RDF>
      <cc:Work
         rdf:about="">
        <dc:format>image/svg+xml</dc:format>
        <dc:type
           rdf:resource="http://purl.org/dc/dcmitype/StillImage" />
      </cc:Work>
    </rdf:RDF>
  </metadata>
  <sodipodi:namedview
     pagecolor="#ffffff"
     bordercolor="#666666"
     borderopacity="1"
     objecttolerance="10"
     gridtolerance="10"
     guidetolerance="10"
     inkscape:pageopacity="0"
     inkscape:pageshadow="2"
     inkscape:window-width="1920"
     inkscape:window-height="1013"
     id="namedview4001"
     showgrid="false"
     inkscape:zoom="2.6255122"
     inkscape:cx="140.27931"
     inkscape:cy="276.69749"
     inkscape:window-x="-9"
     inkscape:window-y="-9"
     inkscape:window-maximized="1"
     inkscape:current-layer="Ebene_1" />
  <defs
     id="defs3888">
    <style
       id="style3859">.cls-1,.cls-2,.cls-3,.cls-4,.cls-5,.cls-6,.cls-7{opacity:0.66;}.cls-1{fill:url(#Unbenannter_Verlauf_8);}.cls-2{fill:url(#Unbenannter_Verlauf_5);}.cls-3{fill:url(#Unbenannter_Verlauf_7);}.cls-4{fill:url(#Unbenannter_Verlauf_5-3);}.cls-5{fill:url(#Unbenannter_Verlauf_11);}.cls-6{fill:url(#Unbenannter_Verlauf_10);}.cls-7{fill:url(#Unbenannter_Verlauf_11-7);}.cls-8{fill:#fff;}.cls-9{fill:#666;}</style>
    <radialGradient
       id="Unbenannter_Verlauf_8"
       cx="187.05"
       cy="57.95"
       r="265.63"
       gradientUnits="userSpaceOnUse">
      <stop
         offset="0"
         stop-color="#f15a24"
         id="stop3861" />
      <stop
         offset="1"
         stop-color="#fcee21"
         id="stop3863" />
    </radialGradient>
    <radialGradient
       id="Unbenannter_Verlauf_5"
       cx="238.84"
       cy="133.58"
       r="265.63"
       gradientUnits="userSpaceOnUse">
      <stop
         offset="0"
         stop-color="#f15a24"
         id="stop3866" />
      <stop
         offset="1"
         stop-color="#ed1c24"
         id="stop3868" />
    </radialGradient>
    <radialGradient
       id="Unbenannter_Verlauf_7"
       cx="361.52"
       cy="-171.14"
       r="205.98"
       gradientTransform="translate(153.58 564.45) rotate(-78.6)"
       gradientUnits="userSpaceOnUse">
      <stop
         offset="0"
         stop-color="#c1272d"
         id="stop3871" />
      <stop
         offset="1"
         stop-color="#ed1c24"
         id="stop3873" />
    </radialGradient>
    <radialGradient
       id="Unbenannter_Verlauf_5-3"
       cx="636.87"
       cy="93.25"
       r="265.63"
       gradientTransform="translate(903.09 338.92) rotate(180)"
       xlink:href="#Unbenannter_Verlauf_5" />
    <radialGradient
       id="Unbenannter_Verlauf_11"
       cx="585.08"
       cy="17.62"
       r="265.63"
       gradientTransform="translate(903.09 338.92) rotate(180)"
       gradientUnits="userSpaceOnUse">
      <stop
         offset="0"
         stop-color="#f15a24"
         id="stop3877" />
      <stop
         offset="1"
         stop-color="#2e3192"
         id="stop3879" />
    </radialGradient>
    <radialGradient
       id="Unbenannter_Verlauf_10"
       cx="479.76"
       cy="211.05"
       r="205.98"
       gradientTransform="translate(749.51 -225.54) rotate(101.4)"
       gradientUnits="userSpaceOnUse">
      <stop
         offset="0"
         stop-color="#9e005d"
         id="stop3882" />
      <stop
         offset="1"
         stop-color="#c1272d"
         id="stop3884" />
    </radialGradient>
    <radialGradient
       id="Unbenannter_Verlauf_11-7"
       cx="585.08"
       cy="17.74"
       r="265.48"
       xlink:href="#Unbenannter_Verlauf_11" />
    <filter
       style="color-interpolation-filters:sRGB;"
       inkscape:label="Greyscale"
       id="filter7767">
      <feColorMatrix
         values="0 0 0 0 0 0 0 0 0 0 0 0 0 0 0 -0.36 -0.57 -0.072 1 0 "
         id="feColorMatrix7765" />
    </filter>
    <filter
       style="color-interpolation-filters:sRGB;"
       inkscape:label="Greyscale"
       id="filter7771">
      <feColorMatrix
         values="0 0 0 0 0 0 0 0 0 0 0 0 0 0 0 -0.36 -0.57 -0.072 1 0 "
         id="feColorMatrix7769" />
    </filter>
    <filter
       style="color-interpolation-filters:sRGB;"
       inkscape:label="Greyscale"
       id="filter7775">
      <feColorMatrix
         values="0 0 0 0 0 0 0 0 0 0 0 0 0 0 0 -0.36 -0.57 -0.072 1 0 "
         id="feColorMatrix7773" />
    </filter>
    <filter
       style="color-interpolation-filters:sRGB;"
       inkscape:label="Greyscale"
       id="filter7779">
      <feColorMatrix
         values="0 0 0 0 0 0 0 0 0 0 0 0 0 0 0 -0.36 -0.57 -0.072 1 0 "
         id="feColorMatrix7777" />
    </filter>
    <filter
       style="color-interpolation-filters:sRGB;"
       inkscape:label="Greyscale"
       id="filter7783">
      <feColorMatrix
         values="0 0 0 0 0 0 0 0 0 0 0 0 0 0 0 -0.36 -0.57 -0.072 1 0 "
         id="feColorMatrix7781" />
    </filter>
    <filter
       style="color-interpolation-filters:sRGB;"
       inkscape:label="Greyscale"
       id="filter7787">
      <feColorMatrix
         values="0 0 0 0 0 0 0 0 0 0 0 0 0 0 0 -0.36 -0.57 -0.072 1 0 "
         id="feColorMatrix7785" />
    </filter>
    <filter
       style="color-interpolation-filters:sRGB;"
       inkscape:label="Greyscale"
       id="filter7791">
      <feColorMatrix
         values="0 0 0 0 0 0 0 0 0 0 0 0 0 0 0 -0.36 -0.57 -0.072 1 0 "
         id="feColorMatrix7789" />
    </filter>
    <filter
       style="color-interpolation-filters:sRGB;"
       inkscape:label="Greyscale"
       id="filter7795">
      <feColorMatrix
         values="0 0 0 0 0 0 0 0 0 0 0 0 0 0 0 -0.36 -0.57 -0.072 1 0 "
         id="feColorMatrix7793" />
    </filter>
    <filter
       style="color-interpolation-filters:sRGB;"
       inkscape:label="Greyscale"
       id="filter7799">
      <feColorMatrix
         values="0 0 0 0 0 0 0 0 0 0 0 0 0 0 0 -0.36 -0.57 -0.072 1 0 "
         id="feColorMatrix7797" />
    </filter>
    <filter
       style="color-interpolation-filters:sRGB;"
       inkscape:label="Greyscale"
       id="filter7803">
      <feColorMatrix
         values="0 0 0 0 0 0 0 0 0 0 0 0 0 0 0 -0.36 -0.57 -0.072 1 0 "
         id="feColorMatrix7801" />
    </filter>
    <filter
       style="color-interpolation-filters:sRGB;"
       inkscape:label="Greyscale"
       id="filter7807">
      <feColorMatrix
         values="0 0 0 0 0 0 0 0 0 0 0 0 0 0 0 -0.36 -0.57 -0.072 1 0 "
         id="feColorMatrix7805" />
    </filter>
    <filter
       style="color-interpolation-filters:sRGB;"
       inkscape:label="Greyscale"
       id="filter7811">
      <feColorMatrix
         values="0 0 0 0 0 0 0 0 0 0 0 0 0 0 0 -0.36 -0.57 -0.072 1 0 "
         id="feColorMatrix7809" />
    </filter>
    <filter
       style="color-interpolation-filters:sRGB;"
       inkscape:label="Greyscale"
       id="filter7815">
      <feColorMatrix
         values="0 0 0 0 0 0 0 0 0 0 0 0 0 0 0 -0.36 -0.57 -0.072 1 0 "
         id="feColorMatrix7813" />
    </filter>
    <filter
       style="color-interpolation-filters:sRGB;"
       inkscape:label="Greyscale"
       id="filter7819">
      <feColorMatrix
         values="0 0 0 0 0 0 0 0 0 0 0 0 0 0 0 -0.36 -0.57 -0.072 1 0 "
         id="feColorMatrix7817" />
    </filter>
    <filter
       style="color-interpolation-filters:sRGB;"
       inkscape:label="Greyscale"
       id="filter7823">
      <feColorMatrix
         values="0 0 0 0 0 0 0 0 0 0 0 0 0 0 0 -0.36 -0.57 -0.072 1 0 "
         id="feColorMatrix7821" />
    </filter>
    <filter
       style="color-interpolation-filters:sRGB;"
       inkscape:label="Greyscale"
       id="filter7827">
      <feColorMatrix
         values="0 0 0 0 0 0 0 0 0 0 0 0 0 0 0 -0.36 -0.57 -0.072 1 0 "
         id="feColorMatrix7825" />
    </filter>
    <filter
       style="color-interpolation-filters:sRGB;"
       inkscape:label="Greyscale"
       id="filter7831">
      <feColorMatrix
         values="0 0 0 0 0 0 0 0 0 0 0 0 0 0 0 -0.36 -0.57 -0.072 1 0 "
         id="feColorMatrix7829" />
    </filter>
    <filter
       style="color-interpolation-filters:sRGB;"
       inkscape:label="Greyscale"
       id="filter7835">
      <feColorMatrix
         values="0 0 0 0 0 0 0 0 0 0 0 0 0 0 0 -0.36 -0.57 -0.072 1 0 "
         id="feColorMatrix7833" />
    </filter>
    <filter
       style="color-interpolation-filters:sRGB;"
       inkscape:label="Greyscale"
       id="filter7839">
      <feColorMatrix
         values="0 0 0 0 0 0 0 0 0 0 0 0 0 0 0 -0.36 -0.57 -0.072 1 0 "
         id="feColorMatrix7837" />
    </filter>
    <filter
       style="color-interpolation-filters:sRGB;"
       inkscape:label="Greyscale"
       id="filter7843">
      <feColorMatrix
         values="0 0 0 0 0 0 0 0 0 0 0 0 0 0 0 -0.36 -0.57 -0.072 1 0 "
         id="feColorMatrix7841" />
    </filter>
    <filter
       style="color-interpolation-filters:sRGB;"
       inkscape:label="Greyscale"
       id="filter7847">
      <feColorMatrix
         values="0 0 0 0 0 0 0 0 0 0 0 0 0 0 0 -0.36 -0.57 -0.072 1 0 "
         id="feColorMatrix7845" />
    </filter>
    <filter
       style="color-interpolation-filters:sRGB;"
       inkscape:label="Greyscale"
       id="filter7851">
      <feColorMatrix
         values="0 0 0 0 0 0 0 0 0 0 0 0 0 0 0 -0.36 -0.57 -0.072 1 0 "
         id="feColorMatrix7849" />
    </filter>
    <filter
       style="color-interpolation-filters:sRGB;"
       inkscape:label="Greyscale"
       id="filter7855">
      <feColorMatrix
         values="0 0 0 0 0 0 0 0 0 0 0 0 0 0 0 -0.36 -0.57 -0.072 1 0 "
         id="feColorMatrix7853" />
    </filter>
    <filter
       style="color-interpolation-filters:sRGB;"
       inkscape:label="Greyscale"
       id="filter7859">
      <feColorMatrix
         values="0 0 0 0 0 0 0 0 0 0 0 0 0 0 0 -0.36 -0.57 -0.072 1 0 "
         id="feColorMatrix7857" />
    </filter>
    <filter
       style="color-interpolation-filters:sRGB;"
       inkscape:label="Greyscale"
       id="filter7863">
      <feColorMatrix
         values="0 0 0 0 0 0 0 0 0 0 0 0 0 0 0 -0.36 -0.57 -0.072 1 0 "
         id="feColorMatrix7861" />
    </filter>
    <filter
       style="color-interpolation-filters:sRGB;"
       inkscape:label="Greyscale"
       id="filter7867">
      <feColorMatrix
         values="0 0 0 0 0 0 0 0 0 0 0 0 0 0 0 -0.36 -0.57 -0.072 1 0 "
         id="feColorMatrix7865" />
    </filter>
    <filter
       style="color-interpolation-filters:sRGB;"
       inkscape:label="Greyscale"
       id="filter7871">
      <feColorMatrix
         values="0 0 0 0 0 0 0 0 0 0 0 0 0 0 0 -0.36 -0.57 -0.072 1 0 "
         id="feColorMatrix7869" />
    </filter>
    <filter
       style="color-interpolation-filters:sRGB;"
       inkscape:label="Greyscale"
       id="filter7875">
      <feColorMatrix
         values="0 0 0 0 0 0 0 0 0 0 0 0 0 0 0 -0.36 -0.57 -0.072 1 0 "
         id="feColorMatrix7873" />
    </filter>
    <filter
       style="color-interpolation-filters:sRGB;"
       inkscape:label="Greyscale"
       id="filter7879">
      <feColorMatrix
         values="0 0 0 0 0 0 0 0 0 0 0 0 0 0 0 -0.36 -0.57 -0.072 1 0 "
         id="feColorMatrix7877" />
    </filter>
    <filter
       style="color-interpolation-filters:sRGB;"
       inkscape:label="Greyscale"
       id="filter7883">
      <feColorMatrix
         values="0 0 0 0 0 0 0 0 0 0 0 0 0 0 0 -0.36 -0.57 -0.072 1 0 "
         id="feColorMatrix7881" />
    </filter>
    <filter
       style="color-interpolation-filters:sRGB;"
       inkscape:label="Greyscale"
       id="filter7887">
      <feColorMatrix
         values="0 0 0 0 0 0 0 0 0 0 0 0 0 0 0 -0.36 -0.57 -0.072 1 0 "
         id="feColorMatrix7885" />
    </filter>
    <filter
       style="color-interpolation-filters:sRGB;"
       inkscape:label="Greyscale"
       id="filter7891">
      <feColorMatrix
         values="0 0 0 0 0 0 0 0 0 0 0 0 0 0 0 -0.36 -0.57 -0.072 1 0 "
         id="feColorMatrix7889" />
    </filter>
    <filter
       style="color-interpolation-filters:sRGB;"
       inkscape:label="Greyscale"
       id="filter7895">
      <feColorMatrix
         values="0 0 0 0 0 0 0 0 0 0 0 0 0 0 0 -0.36 -0.57 -0.072 1 0 "
         id="feColorMatrix7893" />
    </filter>
    <filter
       style="color-interpolation-filters:sRGB;"
       inkscape:label="Greyscale"
       id="filter7899">
      <feColorMatrix
         values="0 0 0 0 0 0 0 0 0 0 0 0 0 0 0 -0.36 -0.57 -0.072 1 0 "
         id="feColorMatrix7897" />
    </filter>
    <filter
       style="color-interpolation-filters:sRGB;"
       inkscape:label="Greyscale"
       id="filter7903">
      <feColorMatrix
         values="0 0 0 0 0 0 0 0 0 0 0 0 0 0 0 -0.36 -0.57 -0.072 1 0 "
         id="feColorMatrix7901" />
    </filter>
    <filter
       style="color-interpolation-filters:sRGB;"
       inkscape:label="Greyscale"
       id="filter7907">
      <feColorMatrix
         values="0 0 0 0 0 0 0 0 0 0 0 0 0 0 0 -0.36 -0.57 -0.072 1 0 "
         id="feColorMatrix7905" />
    </filter>
    <filter
       style="color-interpolation-filters:sRGB;"
       inkscape:label="Greyscale"
       id="filter7911">
      <feColorMatrix
         values="0 0 0 0 0 0 0 0 0 0 0 0 0 0 0 -0.36 -0.57 -0.072 1 0 "
         id="feColorMatrix7909" />
    </filter>
    <filter
       style="color-interpolation-filters:sRGB;"
       inkscape:label="Greyscale"
       id="filter7915">
      <feColorMatrix
         values="0 0 0 0 0 0 0 0 0 0 0 0 0 0 0 -0.36 -0.57 -0.072 1 0 "
         id="feColorMatrix7913" />
    </filter>
    <filter
       style="color-interpolation-filters:sRGB;"
       inkscape:label="Greyscale"
       id="filter7919">
      <feColorMatrix
         values="0 0 0 0 0 0 0 0 0 0 0 0 0 0 0 -0.36 -0.57 -0.072 1 0 "
         id="feColorMatrix7917" />
    </filter>
    <filter
       style="color-interpolation-filters:sRGB;"
       inkscape:label="Greyscale"
       id="filter7923">
      <feColorMatrix
         values="0 0 0 0 0 0 0 0 0 0 0 0 0 0 0 -0.36 -0.57 -0.072 1 0 "
         id="feColorMatrix7921" />
    </filter>
    <filter
       style="color-interpolation-filters:sRGB;"
       inkscape:label="Greyscale"
       id="filter7927">
      <feColorMatrix
         values="0 0 0 0 0 0 0 0 0 0 0 0 0 0 0 -0.36 -0.57 -0.072 1 0 "
         id="feColorMatrix7925" />
    </filter>
    <filter
       style="color-interpolation-filters:sRGB;"
       inkscape:label="Greyscale"
       id="filter7931">
      <feColorMatrix
         values="0 0 0 0 0 0 0 0 0 0 0 0 0 0 0 -0.36 -0.57 -0.072 1 0 "
         id="feColorMatrix7929" />
    </filter>
    <filter
       style="color-interpolation-filters:sRGB;"
       inkscape:label="Greyscale"
       id="filter7935">
      <feColorMatrix
         values="0 0 0 0 0 0 0 0 0 0 0 0 0 0 0 -0.36 -0.57 -0.072 1 0 "
         id="feColorMatrix7933" />
    </filter>
  </defs>
  <title
     id="title3890">DNS_Flag</title>
  <path
     class="cls-1"
     d="M121.92,129.54a121.47,121.47,0,0,1,72.81-24.1c.91,0,1.81,0,2.72,0q1.74-4.25,3.79-8.32C158.58,103,120,116.57,87.9,135.86A94,94,0,0,1,121.92,129.54Z"
     transform="translate(-40.02 -93.84)"
     id="path3892"
     style="filter:url(#filter7935)" />
  <path
     class="cls-2"
     d="M121.92,129.54a94.77,94.77,0,0,1,66.52,27.37c-.07-1.69-.11-3.39-.11-5.1a121.47,121.47,0,0,1,9.12-46.34c-.91,0-1.81,0-2.72,0A121.47,121.47,0,0,0,121.92,129.54Z"
     transform="translate(-40.02 -93.84)"
     id="path3894"
     style="filter:url(#filter7931)" />
  <path
     class="cls-1"
     d="M121.92,129.54a94.77,94.77,0,0,1,66.52,27.37c-.07-1.69-.11-3.39-.11-5.1a121.47,121.47,0,0,1,9.12-46.34c-.91,0-1.81,0-2.72,0A121.47,121.47,0,0,0,121.92,129.54Z"
     transform="translate(-40.02 -93.84)"
     id="path3896"
     style="filter:url(#filter7927)" />
  <path
     class="cls-1"
     d="M121.92,129.54a94,94,0,0,0-34,6.32A239.64,239.64,0,0,0,67,149.92l16.83,26.62A122.41,122.41,0,0,1,121.92,129.54Z"
     transform="translate(-40.02 -93.84)"
     id="path3898"
     style="filter:url(#filter7923)" />
  <path
     class="cls-3"
     d="M121.92,129.54a94,94,0,0,0-34,6.32A239.64,239.64,0,0,0,67,149.92l16.83,26.62A122.41,122.41,0,0,1,121.92,129.54Z"
     transform="translate(-40.02 -93.84)"
     id="path3900"
     style="filter:url(#filter7919)" />
  <path
     class="cls-2"
     d="M140.6,131.42a94,94,0,0,0-18.68-1.88,122.41,122.41,0,0,0-38.09,47l46.15,73c16.8-15.24,43.43-28.16,76-34.47a121.33,121.33,0,0,1-17.54-58.14A94.1,94.1,0,0,0,140.6,131.42Z"
     transform="translate(-40.02 -93.84)"
     id="path3902"
     style="filter:url(#filter7915)" />
  <path
     class="cls-1"
     d="M140.6,131.42a94,94,0,0,0-18.68-1.88,122.41,122.41,0,0,0-38.09,47l46.15,73c16.8-15.24,43.43-28.16,76-34.47a121.33,121.33,0,0,1-17.54-58.14A94.1,94.1,0,0,0,140.6,131.42Z"
     transform="translate(-40.02 -93.84)"
     id="path3904"
     style="filter:url(#filter7911)" />
  <path
     class="cls-3"
     d="M140.6,131.42a94,94,0,0,0-18.68-1.88,122.41,122.41,0,0,0-38.09,47l46.15,73c16.8-15.24,43.43-28.16,76-34.47a121.33,121.33,0,0,1-17.54-58.14A94.1,94.1,0,0,0,140.6,131.42Z"
     transform="translate(-40.02 -93.84)"
     id="path3906"
     style="filter:url(#filter7907)" />
  <path
     class="cls-4"
     d="M278.43,138.68A122.19,122.19,0,0,1,292.81,127a94.07,94.07,0,0,1,14.51-28.51,353.16,353.16,0,0,0-57-4.67,121.24,121.24,0,0,1,11.83,31.89A123.23,123.23,0,0,1,278.43,138.68Z"
     transform="translate(-40.02 -93.84)"
     id="path3908"
     style="filter:url(#filter7903)" />
  <path
     class="cls-2"
     d="M264.94,151.81c0,.64,0,1.27,0,1.91a122.89,122.89,0,0,1,13.52-15,123.23,123.23,0,0,0-16.29-12.94A123,123,0,0,1,264.94,151.81Z"
     transform="translate(-40.02 -93.84)"
     id="path3910"
     style="filter:url(#filter7899)" />
  <path
     class="cls-4"
     d="M264.94,151.81c0,.64,0,1.27,0,1.91a122.89,122.89,0,0,1,13.52-15,123.23,123.23,0,0,0-16.29-12.94A123,123,0,0,1,264.94,151.81Z"
     transform="translate(-40.02 -93.84)"
     id="path3912"
     style="filter:url(#filter7895)" />
  <path
     class="cls-1"
     d="M262.14,125.74a121.24,121.24,0,0,0-11.83-31.89h-.53a355.73,355.73,0,0,0-48.54,3.31q-2.06,4.08-3.79,8.32A121.37,121.37,0,0,1,262.14,125.74Z"
     transform="translate(-40.02 -93.84)"
     id="path3914"
     style="filter:url(#filter7891)" />
  <path
     class="cls-4"
     d="M262.14,125.74a121.24,121.24,0,0,0-11.83-31.89h-.53a355.73,355.73,0,0,0-48.54,3.31q-2.06,4.08-3.79,8.32A121.37,121.37,0,0,1,262.14,125.74Z"
     transform="translate(-40.02 -93.84)"
     id="path3916"
     style="filter:url(#filter7887)" />
  <path
     class="cls-2"
     d="M264.94,151.81a123,123,0,0,0-2.8-26.07,121.37,121.37,0,0,0-64.69-20.27,121.47,121.47,0,0,0-9.12,46.34c0,1.71,0,3.41.11,5.1a94.88,94.88,0,0,1,27.46,56.45,231.67,231.67,0,0,1,25.32-2.29,121.43,121.43,0,0,1,23.69-57.35C264.92,153.08,264.94,152.45,264.94,151.81Z"
     transform="translate(-40.02 -93.84)"
     id="path3918"
     style="filter:url(#filter7883)" />
  <path
     class="cls-1"
     d="M264.94,151.81a123,123,0,0,0-2.8-26.07,121.37,121.37,0,0,0-64.69-20.27,121.47,121.47,0,0,0-9.12,46.34c0,1.71,0,3.41.11,5.1a94.88,94.88,0,0,1,27.46,56.45,231.67,231.67,0,0,1,25.32-2.29,121.43,121.43,0,0,1,23.69-57.35C264.92,153.08,264.94,152.45,264.94,151.81Z"
     transform="translate(-40.02 -93.84)"
     id="path3920"
     style="filter:url(#filter7879)" />
  <path
     class="cls-4"
     d="M264.94,151.81a123,123,0,0,0-2.8-26.07,121.37,121.37,0,0,0-64.69-20.27,121.47,121.47,0,0,0-9.12,46.34c0,1.71,0,3.41.11,5.1a94.88,94.88,0,0,1,27.46,56.45,231.67,231.67,0,0,1,25.32-2.29,121.43,121.43,0,0,1,23.69-57.35C264.92,153.08,264.94,152.45,264.94,151.81Z"
     transform="translate(-40.02 -93.84)"
     id="path3922"
     style="filter:url(#filter7875)" />
  <path
     class="cls-2"
     d="M188.44,156.91A121.33,121.33,0,0,0,206,215.05c3.25-.63,6.55-1.2,9.92-1.69A94.88,94.88,0,0,0,188.44,156.91Z"
     transform="translate(-40.02 -93.84)"
     id="path3924"
     style="filter:url(#filter7871)" />
  <path
     class="cls-1"
     d="M188.44,156.91A121.33,121.33,0,0,0,206,215.05c3.25-.63,6.55-1.2,9.92-1.69A94.88,94.88,0,0,0,188.44,156.91Z"
     transform="translate(-40.02 -93.84)"
     id="path3926"
     style="filter:url(#filter7867)" />
  <path
     class="cls-3"
     d="M188.44,156.91A121.33,121.33,0,0,0,206,215.05c3.25-.63,6.55-1.2,9.92-1.69A94.88,94.88,0,0,0,188.44,156.91Z"
     transform="translate(-40.02 -93.84)"
     id="path3928"
     style="filter:url(#filter7863)" />
  <path
     class="cls-4"
     d="M188.44,156.91A121.33,121.33,0,0,0,206,215.05c3.25-.63,6.55-1.2,9.92-1.69A94.88,94.88,0,0,0,188.44,156.91Z"
     transform="translate(-40.02 -93.84)"
     id="path3930"
     style="filter:url(#filter7859)" />
  <path
     class="cls-5"
     d="M457.66,291.32s6.28-41.75-1.83-68.77c-.53-1.78-1-3.45-1.52-5.07a94.71,94.71,0,0,1-71.17,32.23,121.6,121.6,0,0,1-27.54,15.42c10.12,10.08,30.27,31.25,38.94,48.05,16.95,32.86,12.2,19.52,12.2,19.52s23.59-38.59,14.24-80C447.36,272.53,457.66,291.32,457.66,291.32Z"
     transform="translate(-40.02 -93.84)"
     id="path3932"
     style="filter:url(#filter7855)" />
  <path
     class="cls-4"
     d="M288.72,149.65A95.14,95.14,0,0,1,292.81,127a122.19,122.19,0,0,0-14.38,11.65A122.71,122.71,0,0,1,288.72,149.65Z"
     transform="translate(-40.02 -93.84)"
     id="path3934"
     style="filter:url(#filter7851)" />
  <path
     class="cls-5"
     d="M288.72,149.65A95.14,95.14,0,0,1,292.81,127a122.19,122.19,0,0,0-14.38,11.65A122.71,122.71,0,0,1,288.72,149.65Z"
     transform="translate(-40.02 -93.84)"
     id="path3936"
     style="filter:url(#filter7847)" />
  <path
     class="cls-4"
     d="M364.46,247.83c-1.49-.3-3-.64-4.44-1l-10.45,12.44s2.36,2.21,6,5.87a121.6,121.6,0,0,0,27.54-15.42A95.54,95.54,0,0,1,364.46,247.83Z"
     transform="translate(-40.02 -93.84)"
     id="path3938"
     style="filter:url(#filter7843)" />
  <path
     class="cls-5"
     d="M364.46,247.83c-1.49-.3-3-.64-4.44-1l-10.45,12.44s2.36,2.21,6,5.87a121.6,121.6,0,0,0,27.54-15.42A95.54,95.54,0,0,1,364.46,247.83Z"
     transform="translate(-40.02 -93.84)"
     id="path3940"
     style="filter:url(#filter7839)" />
  <path
     class="cls-2"
     d="M288.72,149.65a122.71,122.71,0,0,0-10.29-11,122.89,122.89,0,0,0-13.52,15,121.36,121.36,0,0,1-15.23,57.19h.1a222.3,222.3,0,0,1,64.81,9.36A94.54,94.54,0,0,1,288.72,149.65Z"
     transform="translate(-40.02 -93.84)"
     id="path3942"
     style="filter:url(#filter7835)" />
  <path
     class="cls-4"
     d="M288.72,149.65a122.71,122.71,0,0,0-10.29-11,122.89,122.89,0,0,0-13.52,15,121.36,121.36,0,0,1-15.23,57.19h.1a222.3,222.3,0,0,1,64.81,9.36A94.54,94.54,0,0,1,288.72,149.65Z"
     transform="translate(-40.02 -93.84)"
     id="path3944"
     style="filter:url(#filter7831)" />
  <path
     class="cls-5"
     d="M288.72,149.65a122.71,122.71,0,0,0-10.29-11,122.89,122.89,0,0,0-13.52,15,121.36,121.36,0,0,1-15.23,57.19h.1a222.3,222.3,0,0,1,64.81,9.36A94.54,94.54,0,0,1,288.72,149.65Z"
     transform="translate(-40.02 -93.84)"
     id="path3946"
     style="filter:url(#filter7827)" />
  <path
     class="cls-2"
     d="M241.22,211.07c2.79-.1,5.61-.16,8.46-.16a121.36,121.36,0,0,0,15.23-57.19A121.43,121.43,0,0,0,241.22,211.07Z"
     transform="translate(-40.02 -93.84)"
     id="path3948"
     style="filter:url(#filter7823)" />
  <path
     class="cls-1"
     d="M241.22,211.07c2.79-.1,5.61-.16,8.46-.16a121.36,121.36,0,0,0,15.23-57.19A121.43,121.43,0,0,0,241.22,211.07Z"
     transform="translate(-40.02 -93.84)"
     id="path3950"
     style="filter:url(#filter7819)" />
  <path
     class="cls-4"
     d="M241.22,211.07c2.79-.1,5.61-.16,8.46-.16a121.36,121.36,0,0,0,15.23-57.19A121.43,121.43,0,0,0,241.22,211.07Z"
     transform="translate(-40.02 -93.84)"
     id="path3952"
     style="filter:url(#filter7815)" />
  <path
     class="cls-5"
     d="M241.22,211.07c2.79-.1,5.61-.16,8.46-.16a121.36,121.36,0,0,0,15.23-57.19A121.43,121.43,0,0,0,241.22,211.07Z"
     transform="translate(-40.02 -93.84)"
     id="path3954"
     style="filter:url(#filter7811)" />
  <path
     class="cls-4"
     d="M344,106.77a325.43,325.43,0,0,0-36.7-8.25A94.07,94.07,0,0,0,292.81,127,121.32,121.32,0,0,1,344,106.77Z"
     transform="translate(-40.02 -93.84)"
     id="path3956"
     style="filter:url(#filter7807)" />
  <path
     class="cls-6"
     d="M344,106.77a325.43,325.43,0,0,0-36.7-8.25A94.07,94.07,0,0,0,292.81,127,121.32,121.32,0,0,1,344,106.77Z"
     transform="translate(-40.02 -93.84)"
     id="path3958"
     style="filter:url(#filter7803)" />
  <path
     class="cls-5"
     d="M383.14,249.71a94.71,94.71,0,0,0,71.17-32.23c-4.27-14.1-7.08-22.33-13.58-31.41l14.15-16.85a217.66,217.66,0,0,0-22.58-19.46c0,.68,0,1.36,0,2.05A121.83,121.83,0,0,1,383.14,249.71Z"
     transform="translate(-40.02 -93.84)"
     id="path3960"
     style="filter:url(#filter7799)" />
  <path
     class="cls-6"
     d="M383.14,249.71a94.71,94.71,0,0,0,71.17-32.23c-4.27-14.1-7.08-22.33-13.58-31.41l14.15-16.85a217.66,217.66,0,0,0-22.58-19.46c0,.68,0,1.36,0,2.05A121.83,121.83,0,0,1,383.14,249.71Z"
     transform="translate(-40.02 -93.84)"
     id="path3962"
     style="filter:url(#filter7795)" />
  <path
     class="cls-4"
     d="M383.14,249.71a121.83,121.83,0,0,0,49.19-97.9c0-.69,0-1.37,0-2.05-24.74-18.61-54.7-33.33-88.28-43A121.32,121.32,0,0,0,292.81,127a95.14,95.14,0,0,0-4.09,22.62,121.49,121.49,0,0,1,27.84,71.24c18.33,5.83,34,13.81,46,22.91l-2.53,3c1.46.37,3,.71,4.44,1A95.54,95.54,0,0,0,383.14,249.71Z"
     transform="translate(-40.02 -93.84)"
     id="path3964"
     style="filter:url(#filter7791)" />
  <path
     class="cls-7"
     d="M383.14,249.71a121.83,121.83,0,0,0,49.19-97.9c0-.69,0-1.37,0-2.05-24.74-18.61-54.7-33.33-88.28-43A121.32,121.32,0,0,0,292.81,127a95.14,95.14,0,0,0-4.09,22.62,121.49,121.49,0,0,1,27.84,71.24c18.33,5.83,34,13.81,46,22.91l-2.53,3c1.46.37,3,.71,4.44,1A95.54,95.54,0,0,0,383.14,249.71Z"
     transform="translate(-40.02 -93.84)"
     id="path3966"
     style="filter:url(#filter7787)" />
  <path
     class="cls-6"
     d="M383.14,249.71a121.83,121.83,0,0,0,49.19-97.9c0-.69,0-1.37,0-2.05-24.74-18.61-54.7-33.33-88.28-43A121.32,121.32,0,0,0,292.81,127a95.14,95.14,0,0,0-4.09,22.62,121.49,121.49,0,0,1,27.84,71.24c18.33,5.83,34,13.81,46,22.91l-2.53,3c1.46.37,3,.71,4.44,1A95.54,95.54,0,0,0,383.14,249.71Z"
     transform="translate(-40.02 -93.84)"
     id="path3968"
     style="filter:url(#filter7783)" />
  <path
     class="cls-2"
     d="M314.59,220.27l2,.62a121.49,121.49,0,0,0-27.84-71.24A94.54,94.54,0,0,0,314.59,220.27Z"
     transform="translate(-40.02 -93.84)"
     id="path3970"
     style="filter:url(#filter7779)" />
  <path
     class="cls-4"
     d="M314.59,220.27l2,.62a121.49,121.49,0,0,0-27.84-71.24A94.54,94.54,0,0,0,314.59,220.27Z"
     transform="translate(-40.02 -93.84)"
     id="path3972"
     style="filter:url(#filter7775)" />
  <path
     class="cls-5"
     d="M314.59,220.27l2,.62a121.49,121.49,0,0,0-27.84-71.24A94.54,94.54,0,0,0,314.59,220.27Z"
     transform="translate(-40.02 -93.84)"
     id="path3974"
     style="filter:url(#filter7771)" />
  <path
     class="cls-6"
     d="M314.59,220.27l2,.62a121.49,121.49,0,0,0-27.84-71.24A94.54,94.54,0,0,0,314.59,220.27Z"
     transform="translate(-40.02 -93.84)"
     id="path3976"
     style="filter:url(#filter7767)" />
  <polygon
     points="0 72.47 178.66 312.31 18.77 59.47 0 72.47"
     id="polygon3984" />
  <path
     class="cls-9"
     d="M176.91,245.73h29.2v7.2h-20.7v9.41h18.14v7.12H185.41v17.16h-8.5Z"
     transform="translate(-40.02 -93.84)"
     id="path3986" />
  <path
     class="cls-9"
     d="M211.66,245.68h8.56v33.58h20.45v7.36h-29Z"
     transform="translate(-40.02 -93.84)"
     id="path3988" />
  <path
     class="cls-9"
     d="M258.12,245.68h9.68l14.49,40.94H273l-2.7-8.41H255.23l-2.77,8.41h-9Zm-.56,25.47h10.49L262.88,255Z"
     id="path3990"
     transform="translate(-40.02 -93.84)" />
  <path
     class="cls-9"
     d="M315,258.45a8,8,0,0,0-4.75-5.86,11.69,11.69,0,0,0-4.7-.91,10.19,10.19,0,0,0-8.12,3.73q-3.18,3.72-3.18,11.21t3.44,10.67a11.34,11.34,0,0,0,7.84,3.14,10.17,10.17,0,0,0,7.05-2.47,10.67,10.67,0,0,0,3.39-6.48h-9.47v-6.83h17.05v22h-5.66l-.86-5.11a19.34,19.34,0,0,1-4.45,4.09,15.63,15.63,0,0,1-8.33,2.08A17.3,17.3,0,0,1,291,282q-5.43-5.66-5.42-15.49T291,250.62q5.47-6,14.47-6,7.81,0,12.55,4a14.78,14.78,0,0,1,5.43,9.87Z"
     transform="translate(-40.02 -93.84)"
     id="path3992" />
  <path
     class="cls-9"
     d="M221.38,314.83a13.58,13.58,0,0,1,7,5.2,18.18,18.18,0,0,1,2.91,6.61,31.65,31.65,0,0,1,.78,6.78,27.17,27.17,0,0,1-3.28,13.83q-4.44,7.65-13.73,7.64H197.39V314H215A21.56,21.56,0,0,1,221.38,314.83Zm-15.69,6.23v26.72h7.9q6.07,0,8.46-6a21.1,21.1,0,0,0,1.31-7.81c0-4.17-.66-7.36-2-9.6s-3.91-3.34-7.81-3.34Z"
     transform="translate(-40.02 -93.84)"
     id="path3994" />
  <path
     class="cls-9"
     d="M250.18,314h9.68l14.49,40.94h-9.28l-2.7-8.42H247.29l-2.78,8.42h-8.95Zm-.56,25.47H260.1l-5.17-16.11Z"
     transform="translate(-40.02 -93.84)"
     id="path3996" />
  <path
     class="cls-9"
     d="M297.7,314h9.69L293.7,339.54v15.35h-8.56V339.54L271,314h10.08l8.51,17.83Z"
     transform="translate(-40.02 -93.84)"
     id="path3998" />
  <path
     inkscape:connector-curvature="0"
     id="path745"
     style="font-style:normal;font-variant:normal;font-weight:normal;font-stretch:normal;font-size:medium;line-height:1.25;font-family:sans-serif;-inkscape-font-specification:sans-serif;letter-spacing:0px;word-spacing:0px;fill:#f9f9f9;fill-opacity:1;stroke:none;stroke-width:2.42092395"
     d="m 139.02805,103.71717 h -27.80281 v -7.18712 h 9.22031 V 40.498899 h -9.22031 v -7.187118 h 27.80281 v 7.187118 h -9.22033 V 96.53005 h 9.22033 z" />
  <path
     inkscape:connector-curvature="0"
     id="path747"
     style="font-style:normal;font-variant:normal;font-weight:normal;font-stretch:normal;font-size:medium;line-height:1.25;font-family:sans-serif;-inkscape-font-specification:sans-serif;letter-spacing:0px;word-spacing:0px;fill:#f9f9f9;fill-opacity:1;stroke:none;stroke-width:2.42092395"
     d="m 201.11151,54.589432 q 0,4.681084 -1.65494,8.700196 -1.60764,3.971828 -4.53924,6.903417 -3.64082,3.640842 -8.60561,5.484906 -4.9648,1.796778 -12.53019,1.796778 h -9.36215 v 26.242441 h -9.36217 V 33.311781 h 19.10259 q 6.33602,0 10.73341,1.087525 4.39736,1.040239 7.80179,3.309856 4.01912,2.695168 6.19417,6.714282 2.22234,4.019112 2.22234,10.165988 z m -9.74044,0.236427 q 0,-3.640844 -1.27665,-6.336013 -1.27668,-2.695169 -3.87728,-4.397381 -2.26962,-1.465794 -5.20119,-2.080481 -2.88431,-0.661973 -7.32898,-0.661973 h -9.26759 v 28.133785 h 7.89638 q 5.67404,0 9.2203,-0.992956 3.54627,-1.040242 5.76861,-3.262573 2.22233,-2.269616 3.12071,-4.775652 0.94569,-2.506034 0.94569,-5.626756 z" />
  <path
     inkscape:connector-curvature="0"
     id="path749"
     style="font-style:normal;font-variant:normal;font-weight:normal;font-stretch:normal;font-size:medium;line-height:1.25;font-family:sans-serif;-inkscape-font-specification:sans-serif;letter-spacing:0px;word-spacing:0px;fill:#f9f9f9;fill-opacity:1;stroke:none;stroke-width:2.42092395"
     d="m 258.46659,50.901307 -21.37221,52.815863 h -8.93662 L 206.92739,50.901307 h 9.64588 l 16.36015,42.035183 16.2183,-42.035183 z" />
  <path
     inkscape:connector-curvature="0"
     id="path751"
     style="font-style:normal;font-variant:normal;font-weight:normal;font-stretch:normal;font-size:medium;line-height:1.25;font-family:sans-serif;-inkscape-font-specification:sans-serif;letter-spacing:0px;word-spacing:0px;fill:#f9f9f9;fill-opacity:1;stroke:none;stroke-width:2.42092395"
     d="m 318.23315,83.905309 h -10.44968 v 19.811861 h -9.07846 V 83.905309 H 264.99175 V 73.030065 l 34.09153,-39.718284 h 8.70019 v 43.02814 h 10.44968 z M 298.70501,76.339921 V 44.565294 l -27.28268,31.774627 z" />
</svg>
